<svg width="27" height="38" viewBox="0 0 27 38" fill="none" xmlns="http://www.w3.org/2000/svg">
<path d="M25.0986 14.6321C25.0417 14.107 25.1084 13.3553 24.974 12.9389C24.974 12.9346 24.9718 12.926 24.9691 12.9114C24.6785 14.0649 25.0412 15.3404 24.4413 16.4087C23.9365 17.0826 23.9517 17.8888 24.0029 18.6816C24.0345 20.0087 24.1364 21.3384 24.1306 22.6646C23.965 23.6929 22.9529 22.6607 22.3899 22.8915C21.8442 23.1923 21.388 22.8163 21.263 22.2804C20.9492 22.9104 21.2011 23.4368 21.7833 23.7093C22.0151 23.8571 22.0681 24.4398 21.6671 24.3677C20.6403 24.1996 19.8681 24.8507 18.9196 25.0209C19.5534 25.3591 21.3635 24.3333 21.2576 25.5593C21.2038 26.1988 20.2945 25.8413 20.1133 26.4399C20.8103 27.0205 20.4511 28.1271 19.6237 28.3978C16.9564 28.8628 14.378 27.2147 12.0979 26.0699C10.3715 25.0028 9.46305 23.1411 9.11322 21.2498C8.95611 20.848 10.5927 21.6228 10.8406 21.2361C7.76953 20.9043 6.69155 12.9982 10.813 15.927C11.1997 16.3632 11.396 16.9197 11.5224 17.4741C11.5224 17.9631 12.5813 16.771 13.7661 17.41C15.3318 17.9309 16.2171 16.4276 17.3636 15.7241C18.3846 15.0236 19.528 14.4671 20.4409 13.6385C20.8468 13.287 19.3634 13.5706 19.1475 13.0244C18.6081 12.4387 17.7722 12.0923 17.0556 12.5947C16.4891 13.0339 15.574 13.6639 15.4827 14.3304C16.7792 12.8285 17.5746 12.5685 19.233 13.7752C19.451 13.841 19.4034 13.9497 19.2899 14.0515C18.9868 14.339 18.5742 14.1805 18.2217 14.0945C17.2929 13.6987 16.1268 13.9712 16.0133 15.043C16.271 14.5612 17.6832 13.9634 17.8109 14.6265C16.5825 15.5037 15.6127 17.3318 13.8466 16.9064C13.2386 16.7345 12.4286 16.5243 12.0895 16.0065C12.9796 16.3967 14.2824 16.6941 14.9949 15.8801C11.7423 17.401 11.3417 12.0833 8.92273 13.6626C9.89344 13.556 11.5082 15.2682 9.96866 14.8479C8.77896 14.4181 8.08998 16.0443 6.99865 15.4306C5.97275 14.6351 7.61865 15.3803 7.83006 14.7039C7.94756 14.5569 7.84163 14.446 7.68185 14.526C6.5647 14.8199 6.41248 14.4976 5.65452 13.9982C5.64517 14.1465 5.93803 14.6493 5.62915 14.5939C5.37056 14.6085 4.57431 13.9493 4.90189 14.4615C5.49963 15.1272 6.9675 15.7482 6.54868 16.7822C6.07601 16.1444 6.0266 16.101 5.67188 16.0297C5.88195 16.428 6.07868 16.8178 6.05598 17.2712C5.59755 16.8372 5.51343 16.0228 4.73543 15.856C4.42699 15.7469 4.00728 15.4057 4.07761 15.0825C4.56096 15.3949 4.88142 15.5664 5.3078 15.4358C4.74211 14.9708 3.94008 14.706 3.84349 13.7726C3.91515 13.4464 3.09977 12.1989 3.49411 12.2487C3.77921 12.4181 3.99661 12.6756 4.11099 12.9793C5.50942 14.7769 5.08571 13.2058 4.25475 12.3063C3.99082 11.8379 2.3645 10.6973 2.47176 11.8018C2.81581 12.8392 3.3054 13.9394 2.93019 15.0365C2.34091 16.343 2.06941 14.3489 1.97862 13.8332C1.84954 13.4787 1.93411 12.9346 1.70667 12.6785C1.54155 12.8787 1.61766 13.2586 1.60297 13.5195C1.94079 15.3885 1.46945 18.1922 2.95601 19.8329C3.16163 20.9967 3.73757 22.0281 4.91124 22.5833C5.51743 23.6577 5.11508 25.2409 5.10663 26.4756C4.90768 28.9776 3.32498 30.9548 1.92565 32.9579C-1.57711 39.8283 3.36993 32.1908 10.1454 34.5841C13.2093 35.5764 15.967 37.374 19.192 37.9052C21.9786 38.6624 14.9193 34.6601 14.6268 33.8724C14.2085 32.4972 14.9776 30.8848 15.0844 29.4516C15.1703 29.0064 15.0715 28.9875 15.663 29.0132C16.9724 29.082 18.301 29.1559 19.5975 28.9174C21.7272 28.562 20.2063 26.6505 21.2585 26.1747C21.8331 26.0591 21.5994 25.4377 21.6373 25.0574C21.7027 24.8812 21.9488 24.9229 22.1064 24.8395C22.7295 24.5662 21.9052 23.4991 22.8421 23.4948C23.6299 23.6087 24.6731 23.6354 24.5597 22.5704C24.553 21.0809 24.4061 19.5962 24.395 18.1066C24.3723 16.8844 25.3434 15.8956 25.0986 14.6321ZM4.85427 20.949C3.87198 20.1952 2.68985 19.4479 2.89592 18.0641C3.29649 18.6963 3.45005 19.3297 4.1101 19.7599C4.33842 19.8471 5.40705 21.1965 4.85427 20.949ZM5.20766 19.5429C4.19065 19.3044 3.77406 18.4573 3.54796 17.5454C3.52526 17.0013 2.04226 15.431 3.45895 16.3481C3.54796 16.4182 3.58846 16.5428 3.72021 16.5583C3.77985 16.3924 3.40865 15.8707 3.7705 16.055C5.11286 16.7426 4.26009 18.3176 5.21611 19.2395C5.36477 19.3392 5.53568 19.6456 5.20766 19.5429ZM14.3829 28.932C14.0353 30.3828 13.8395 31.859 13.5778 33.3249C12.9809 33.832 11.842 32.9313 11.3079 32.5312C10.4071 31.8973 7.59194 28.1752 8.92807 31.4998C8.96456 31.8436 9.63396 32.795 9.03755 32.8427C6.82107 31.6931 6.60342 28.4593 7.55366 26.4279C8.03613 25.5589 9.04646 25.7248 9.72476 26.2775C11.056 27.479 13.0214 28.0003 14.3829 28.932ZM16.0093 15.0464C16.0137 15.0464 16.0173 15.0464 16.0137 15.04C16.0118 15.0421 16.01 15.0444 16.0084 15.0468L16.0093 15.0464ZM5.02874 13.8345H5.03408C5.03408 13.8345 5.03007 13.8315 5.02874 13.8345Z" fill="white"/>
<path d="M26.1072 9.16916C25.6087 8.04622 24.9148 6.6302 23.4545 6.60227C23.2863 6.61989 23.2169 6.50815 23.2213 6.35946C23.2867 4.98426 17.5354 8.47468 16.6555 8.67065C15.9167 8.94268 17.96 7.29244 18.1149 7.0621C19.735 5.71484 21.1179 3.56309 23.2627 3.0577C23.4826 3.16987 23.5791 3.01473 23.5702 2.80673C23.9179 1.55143 22.5354 0.979866 21.4646 0.875007C20.3928 0.871569 19.9874 2.15781 19.387 2.83423C19.2209 3.11486 19.0434 3.38603 18.7403 3.06673C17.6721 2.38557 16.6199 1.65844 15.294 1.54584C16.2265 1.98978 17.5742 2.38557 17.928 3.32887C17.6329 3.19995 17.4121 2.87935 17.0685 2.89912C17.2212 3.05297 17.5661 3.96275 17.2181 3.64517C16.7045 2.83337 15.8156 2.35076 14.9344 1.99235C13.3797 1.39071 12.563 3.36067 9.47507 3.04309C11.3991 3.94255 13.8057 1.80627 15.6688 3.26484C15.6145 2.87334 15.0955 2.81145 14.9046 2.49688C16.0466 2.64385 16.4036 3.73584 17.0815 4.47372C17.632 5.15616 17.1024 4.69504 16.7218 4.57901C16.903 4.95547 17.4282 5.35256 17.2314 5.7475C17.0223 6.00234 16.0547 4.16559 15.4324 4.01131C14.1947 3.15611 12.66 3.50679 11.3898 4.10113C10.0341 4.73114 8.7981 3.13463 7.46287 3.79042C6.39913 4.06675 5.99411 5.39811 5.00871 5.61557C2.59238 5.52661 6.0226 4.62714 6.34839 3.87551C6.70446 3.4376 7.23143 3.25667 7.67072 2.93565C7.27015 2.85701 6.96483 3.15053 6.59808 3.17287C6.91676 2.5188 7.82294 2.27556 8.52839 2.20422C9.32953 2.13632 10.124 2.29962 10.9238 2.32369C15.5366 1.70915 11.0404 0.643802 9.25431 1.25705C9.87074 1.33742 10.4382 1.41348 10.9162 1.75041C8.92406 1.46849 6.60609 1.73021 5.68122 3.75991C5.45601 4.33062 4.69626 4.20599 4.38337 4.70536C3.82035 5.41315 3.38506 6.20389 2.88925 6.95294C2.55277 7.79998 1.05464 10.0403 2.24299 11.0656C2.54654 10.4975 3.01921 10.0523 3.76739 10.3432C5.05811 11.1267 3.96589 9.26456 3.20214 9.63415C1.46633 10.4455 3.46206 8.95858 3.77673 8.60275C3.30629 8.6728 2.98805 9.07547 2.56612 9.19451C2.82471 7.85628 3.61695 7.19661 4.72208 6.38525C5.49518 5.61685 5.87083 7.83393 6.62968 6.66329C7.0623 5.74922 8.20882 5.52661 8.91872 5.05904C8.2689 5.0238 7.64936 5.31345 7.12016 5.65209C7.06497 5.6869 7.01156 5.7591 6.91364 5.66928C7.75929 4.42301 8.70953 4.18751 10.128 4.69719C11.8193 4.9443 12.1233 3.51925 14.0411 4.90777C14.4364 5.17937 16.6506 6.90524 15.7818 7.1777C14.4711 7.5215 13.5662 5.07795 12.1878 5.8313C11.0894 6.9856 10.2624 7.6977 8.55064 7.16567C6.87314 7.10636 7.26971 8.22844 5.01717 7.49314C4.6166 7.5894 4.12389 7.72434 3.88756 8.05181C4.76748 7.96328 5.67989 7.86143 6.27362 8.67881C6.75653 9.37415 7.8176 9.59504 8.40109 8.84126C8.05838 8.95127 7.13618 9.05613 7.16867 8.64959C7.48348 8.58914 7.76271 8.41538 7.94978 8.16355C8.35703 7.62335 9.06248 8.10983 9.58411 8.21383C11.0564 8.74843 11.3813 6.57176 12.6654 6.56402C13.1728 6.61215 13.7082 6.82187 14.0451 7.20263C13.4193 7.1416 12.7393 6.85883 12.1722 7.3019C11.7993 7.68438 13.4131 7.22497 13.4812 7.72692C12.4371 7.80428 11.1023 7.84811 10.3456 8.5761C11.3978 8.13346 12.1451 9.22674 13.1732 8.99296C10.4137 8.19492 13.2013 7.61304 14.1924 8.46351C16.2843 7.84811 17.8323 5.70409 19.1204 4.02721C20.0608 3.062 20.8188 0.775305 22.4317 1.98677C22.8768 2.19562 20.0021 4.44493 19.7021 4.96536C18.4291 6.23011 17.1464 7.50818 15.6314 8.50649C15.0577 8.96761 14.2196 9.15927 13.6597 9.49491C15.3096 9.83484 16.8643 8.88853 18.374 8.37971C20.3937 7.84295 23.4091 5.86525 24.986 8.04923C25.6643 8.87134 25.9852 10.112 25.6888 11.1344C25.614 11.2457 25.7151 11.3364 25.8308 11.2556C26.2527 11.1396 26.279 9.49319 26.1072 9.16916ZM10.9162 1.75041C10.9234 1.75041 10.8944 1.76631 10.8949 1.76717L10.9162 1.75041ZM16.4797 6.56402C15.4716 5.70452 14.7368 4.28635 13.2173 3.90517C14.0474 3.65376 14.7461 3.81277 15.3537 4.34437C15.7306 4.81322 17.2693 6.06336 16.4797 6.56531V6.56402ZM17.3485 4.87984C17.3236 4.86952 17.3196 4.85319 17.3365 4.83213C17.3538 4.84675 17.3699 4.86608 17.3485 4.88112V4.87984ZM15.6759 3.27L15.6688 3.26484C15.6688 3.26957 15.6661 3.27429 15.6643 3.27902L15.6759 3.27ZM12.0672 7.47681C12.0672 7.46864 12.0672 7.46649 12.0583 7.46778L12.0672 7.47681ZM3.7794 8.59158C3.77965 8.59616 3.77965 8.60075 3.7794 8.60533L3.79142 8.60232L3.7794 8.59158Z" fill="white"/>
<path d="M15.5352 13.3747C15.0154 14.431 13.8226 14.6055 12.7655 14.2402C12.891 14.8264 13.686 15.1663 14.2681 15.0408C11.441 16.8887 11.8313 10.1374 8.39931 13.0356C7.82383 13.6691 7.05251 14.4456 6.20775 13.8212C5.77558 13.7047 4.69448 12.097 5.70214 12.6484C7.89593 13.709 8.4545 9.79616 10.4235 10.6814C10.1934 10.9088 9.71496 10.9131 9.52536 11.2711C9.30994 11.516 10.2459 11.4 10.4222 11.721C11.8616 13.1254 13.4937 14.9708 15.5352 13.3747Z" fill="white"/>
<path d="M12.3205 9.70677C13.5368 11.464 15.9421 10.4288 17.2675 11.7167C15.5513 10.7528 13.4349 12.9002 12.0507 11.1237C11.5558 10.326 11.0716 9.44764 9.96866 9.48116C8.69039 9.41326 8.28181 10.8108 7.52073 11.5405C6.37154 12.8787 4.68514 11.9114 4.77415 10.32C6.05375 13.0829 7.5096 10.6827 8.84172 9.51339C10.2175 8.48457 11.5166 9.82367 12.3423 10.8486C12.8764 11.4073 13.8426 11.7146 14.561 11.3501C13.5809 11.0906 12.6173 10.8551 12.3205 9.70677Z" fill="white"/>
<path d="M23.1643 16.3928C21.6827 16.2514 20.1676 16.7757 18.7496 17.1397C19.2499 18.4642 20.7284 17.303 21.7414 17.3215C21.8954 17.2433 22.5248 17.4178 22.1909 17.5437C21.6217 17.4801 21.0921 17.6915 20.5713 17.8806C19.6242 18.0525 20.7111 18.8488 21.036 19.1595C21.7063 19.8751 24.3887 16.6747 23.1643 16.3928ZM21.9987 18.3159C21.9542 19.3542 20.2531 18.4088 20.6755 18.0555C21.0084 17.9902 22.0076 17.7044 21.9987 18.3159Z" fill="white"/>
<path d="M24.2877 9.18205C23.0019 7.68223 22.8074 9.53058 21.4695 9.63415C22.5252 10.5276 23.5204 8.22887 24.1982 9.93024C23.4105 9.02777 22.7397 10.372 21.8767 10.1125C21.3515 9.88856 20.6946 9.81464 20.3123 9.36813C20.1031 9.09696 19.8267 9.11286 19.5369 9.15584C19.3723 9.28777 18.1505 9.45666 18.5466 9.14509C18.8097 9.07242 19.0446 8.926 19.2214 8.72437C19.9032 8.24563 20.7792 9.19709 21.5532 9.15412C22.4825 9.22932 23.1461 6.70412 24.2877 9.18205Z" fill="white"/>
<path d="M11.9363 12.0055C14.1831 13.8882 14.5049 11.6785 16.5652 11.871C16.5349 11.9763 16.4681 11.9793 16.4138 11.9883C15.78 12.0824 15.4151 12.6033 14.9771 12.9956C13.9356 14.1542 12.2848 13.2917 11.9363 12.0055Z" fill="white"/>
<path d="M22.1607 11.6849C22.2368 11.8602 22.4188 11.8633 22.5212 11.9664C20.8152 11.8087 21.5905 10.3716 18.7825 10.8164C21.1303 9.56582 21.5794 11.314 22.5973 11.1684C22.9494 11.0343 23.3152 10.8117 23.5609 11.2693C23.0014 11.0601 22.6556 11.5431 22.1607 11.6849Z" fill="white"/>
<path d="M8.78742 16.9214C8.9343 15.382 10.9487 16.0688 10.4298 17.3851C10.3853 17.453 10.3853 17.5871 10.4987 17.5664C11.0124 17.1904 10.8401 17.9163 10.695 18.1483C10.3808 18.6211 9.49331 18.3374 9.66556 17.7345C9.68959 17.3701 10.1529 16.9717 9.88187 16.6343C9.47551 16.2385 9.08384 16.6837 8.78742 16.9214Z" fill="white"/>
<path d="M9.69627 5.50856C10.3528 5.9916 11.0101 5.35901 11.6818 5.38909C10.938 5.96151 10.2406 7.10808 9.19867 6.31863C8.61162 5.89877 7.98762 6.44025 7.42237 6.56746C7.62176 6.10677 7.90928 5.90908 8.37216 5.90823C8.85952 5.82657 10.2673 6.58508 10.335 5.90823C10.1026 5.79993 9.81244 5.75137 9.69627 5.50856Z" fill="white"/>
<path d="M21.9933 12.4073C20.9941 12.8225 20.4422 11.7154 19.4564 11.8555C18.6917 11.9625 20.2682 12.9479 20.533 13.0369C19.8209 13.1082 19.4168 12.6175 19.0104 12.1284C18.9121 11.9789 18.3428 11.8727 18.7127 11.7489C20.4876 11.0205 20.5646 12.0811 21.9933 12.4073Z" fill="white"/>
<path d="M20.0265 6.19444C20.7338 5.38565 21.9657 4.82827 22.9356 4.26057C23.353 3.98768 23.7416 4.83944 23.3161 4.92023C22.1429 5.06248 21.0311 5.63662 20.0203 6.19487L20.0265 6.19444Z" fill="white"/>
<path d="M5.75332 9.96978C5.91222 10.0458 6.06978 10.1288 6.30077 10.0665C6.02749 9.82452 5.69368 9.6797 5.61491 9.35008C6.24425 9.92208 7.03915 9.87524 7.81938 9.77983C7.5866 10.6032 5.99278 10.8955 5.75332 9.96978Z" fill="white"/>
<path d="M16.461 9.71709C17.4121 9.90489 18.1706 9.9672 19.0843 9.84816C18.455 10.837 17.2248 10.5925 16.461 9.71709Z" fill="white"/>
<path d="M9.3954 18.7831C9.81377 19.1367 10.2682 19.0435 10.7511 18.9077C11.0974 20.3925 8.96768 19.2627 8.98548 18.395C8.98548 18.395 9.2374 18.67 9.3954 18.7831Z" fill="white"/>
<path d="M24.3874 11.2775C23.6655 10.3927 22.9578 10.88 22.162 10.5994C22.9057 10.3978 24.2766 10.1271 24.3874 11.2775Z" fill="white"/>
<path d="M3.78875 8.60103L3.85373 8.55806C3.86664 8.64272 3.76561 8.56751 3.78875 8.60103Z" fill="white"/>
<path d="M15.6639 3.2816C15.6906 3.2792 15.7172 3.28644 15.7387 3.30192C15.7601 3.3174 15.7749 3.34002 15.78 3.3654C15.7435 3.34262 15.7004 3.26183 15.6639 3.2816Z" fill="white"/>
<path d="M24.322 10.0454C24.2824 10.0166 24.2405 9.92036 24.1982 9.93024C24.2708 9.9397 24.277 10.0093 24.322 10.0454Z" fill="white"/>
<path d="M5.76223 9.97821L5.73063 9.99076C5.73864 9.98628 5.75555 9.96027 5.76223 9.97821Z" fill="white"/>
<path d="M15.5277 13.3833L15.5228 13.3506C15.5255 13.3583 15.5415 13.3773 15.5277 13.3833Z" fill="white"/>
<path d="M5.02874 13.8345L5.05055 13.8079C5.04387 13.8152 5.0412 13.8358 5.02874 13.8345Z" fill="white"/>
<path d="M12.3405 9.70892L12.3142 9.72955C12.3792 9.7519 12.296 9.69904 12.3405 9.70892Z" fill="white"/>
<path d="M5.63538 9.35309L5.60689 9.37544C5.67499 9.40165 5.59354 9.34106 5.63538 9.35309Z" fill="white"/>
<path d="M24.2721 9.1726C24.3313 9.16142 24.2841 9.22073 24.3011 9.16529C24.3064 9.14724 24.281 9.14638 24.2868 9.18119L24.2721 9.1726Z" fill="white"/>
<path d="M14.1933 8.46351L14.2031 8.49058C14.1982 8.48156 14.1742 8.47125 14.1933 8.46351Z" fill="white"/>
<path d="M12.0583 7.46778C12.0316 7.51978 12.1099 7.47466 12.0547 7.49787C12.0102 7.51291 12.0249 7.45489 12.0672 7.47681L12.0583 7.46778Z" fill="white"/>
<path d="M9.71452 5.51629C9.65532 5.52833 9.70428 5.46515 9.69271 5.52188C9.69004 5.53563 9.71229 5.5352 9.69939 5.50899L9.71452 5.51629Z" fill="white"/>
<path d="M15.7823 3.35509L15.7885 3.37572C15.8237 3.33704 15.78 3.3697 15.7823 3.35509Z" fill="white"/>
<path d="M24.3077 10.0364L24.3313 10.0321C24.2904 9.99127 24.3367 10.06 24.3077 10.0364Z" fill="white"/>
</svg>
